# xmcd
#
# Track frame offsets: 
#        150
#        15797
#        31410
#        44595
#        57308
#        70973
#        84190
#        104243
#        118795
#        132396
#        145841
#        159910
#        173968
#        188449
#        204149
#        220503
#        235999
#        253014
#        269991
#        283870
#        299895
#        312290
#
# Disc length: 4348 seconds
#
# Revision: 1
# Processed by: cddbd v1.5.2PL0 Copyright (c) Steve Scherf et al.
# Submitted via: ExactAudioCopyFreeDBPlugin 1.0
#
DISCID=4f10fa16
DTITLE=Thelonious Monk - Bebop Story 049 - Thelonious Monk 1951-52
DYEAR=1952
DGENRE=Jazz
TTITLE0=Thelonious Monk Quintet - Four In One
TTITLE1=Thelonious Monk Quintet - Four In One
TTITLE2=Thelonious Monk Quintet - Criss Cross
TTITLE3=Thelonious Monk Quintet - Criss Cross
TTITLE4=Thelonious Monk Quintet - Eronel
TTITLE5=Thelonious Monk Quintet - Straight No Chaser
TTITLE6=Thelonious Monk Quintet - Ask Me Now
TTITLE7=Thelonious Monk Quintet - Ask Me Now
TTITLE8=Thelonious Monk Quintet - Willow Weep For Me
TTITLE9=Skippy
TTITLE10=Skippy
TTITLE11=Hornin' In
TTITLE12=Hornin' In
TTITLE13=Sixteen
TTITLE14=Sixteen
TTITLE15=Carolina Moon
TTITLE16=Let's Cool One
TTITLE17=I'll Follow You
TTITLE18=Thelonious Monk Trio - Little Rootie Tootie
TTITLE19=Thelonious Monk Trio - Sweet And Lovely
TTITLE20=Thelonious Monk Trio - Bye-Ya
TTITLE21=Thelonious Monk Trio - Monk's Dream
EXTD=YEAR: 2008
EXTT0=
EXTT1=
EXTT2=
EXTT3=
EXTT4=
EXTT5=
EXTT6=
EXTT7=
EXTT8=
EXTT9=
EXTT10=
EXTT11=
EXTT12=
EXTT13=
EXTT14=
EXTT15=
EXTT16=
EXTT17=
EXTT18=
EXTT19=
EXTT20=
EXTT21=
PLAYORDER=
